<?xml version="1.0" encoding="utf-8"?>
<!-- Generator: Adobe Illustrator 16.0.0, SVG Export Plug-In . SVG Version: 6.00 Build 0)  -->
<!DOCTYPE svg PUBLIC "-//W3C//DTD SVG 1.1//EN" "http://www.w3.org/Graphics/SVG/1.1/DTD/svg11.dtd">
<svg version="1.1" id="Layer_1" xmlns="http://www.w3.org/2000/svg" xmlns:xlink="http://www.w3.org/1999/xlink" x="0px" y="0px"
	 width="24px" height="24px" viewBox="0 0 24 24" enable-background="new 0 0 24 24" xml:space="preserve">
<path fill="#ECEDEF" d="M24,14v-4l-2.836-0.473c-0.216-0.801-0.53-1.559-0.935-2.261l1.67-2.338l-2.828-2.828l-2.338,1.67
	c-0.702-0.405-1.46-0.719-2.261-0.935L14,0h-4L9.527,2.836c-0.8,0.216-1.559,0.53-2.261,0.935l-2.338-1.67L2.101,4.929l1.67,2.338
	c-0.405,0.702-0.719,1.459-0.935,2.26L0,10v4l2.836,0.473c0.216,0.801,0.53,1.559,0.935,2.26l-1.67,2.339l2.828,2.828l2.338-1.671
	c0.702,0.405,1.46,0.72,2.26,0.935L10,24h4l0.473-2.837c0.801-0.215,1.559-0.529,2.261-0.934l2.338,1.67l2.828-2.828l-1.67-2.338
	c0.404-0.702,0.719-1.46,0.934-2.261L24,14z M12,16.5c-2.485,0-4.5-2.015-4.5-4.5S9.515,7.5,12,7.5s4.5,2.015,4.5,4.5
	S14.485,16.5,12,16.5z"/>
</svg>
